<svg xmlns="http://www.w3.org/2000/svg" width="60" height="60" fill="none"><circle cx="30" cy="30" r="29.5" stroke="#63CF9B"/><path fill="#3BB57B" d="M38.1 34.6l2-2c.2-.2.4-.2.6-.2.2.1.3.3.3.5V42c0 .8-.3 1.5-.9 2.1-.6.6-1.3.9-2.1.9H16c-.8 0-1.5-.3-2.1-.9-.6-.6-.9-1.3-.9-2.1V20c0-.8.3-1.5.9-2.1.6-.6 1.3-.9 2.1-.9h17.1c.2 0 .4.1.5.3 0 .2 0 .4-.2.6l-2 2-.3.1H16v22h22v-7.1l.1-.3zM48 21.9L31.5 38.4l-5.6.6c-.9 0-1.6-.2-2.1-.8-.6-.5-.9-1.2-.8-2l.6-5.7 16.5-16.4a3.6 3.6 0 0 1 5.2 0l2.6 2.7c.7.7 1.1 1.5 1.1 2.6 0 1-.4 1.8-1 2.5zm-6.1 2L38 20.3 26.5 31.9l-.4 4 4-.4 11.6-11.6zm4-5l-2.7-2.7a.7.7 0 0 0-.5-.2c-.1 0-.3 0-.4.2l-2 2 3.7 3.6 2-2 .1-.4c0-.2 0-.4-.2-.5z"/></svg>